
<svg xmlns="http://www.w3.org/2000/svg" version="1.1" xmlns:xlink="http://www.w3.org/1999/xlink" preserveAspectRatio="none" x="0px" y="0px" width="1024px" height="768px" viewBox="0 0 1024 768">
<defs>
<g id="Layer0_0_FILL">
<path fill="#FDC500" stroke="none" d="
M 248.5 408.25
Q 248.5 405.7 246.65 403.85 244.8 402 241.8 402 238.75 402 236.05 403.85 233.3 405.7 234.65 408.25 236 410.85 237.8 412.7 239.65 414.5 242.25 414.5 244.8 414.5 246.65 412.7 248.5 410.85 248.5 408.25
M -3.75 540.95
L -3.75 777.65 296.3 777.65
Q 35.101171875 629.663671875 -3.75 540.95
M 241.5 432.05
Q 226.0986328125 416.64921875 200.65 414.45 175.25390625 412.30234375 160.8 428.3 146.3958984375 444.34765625 149 467.7 151.651171875 491.10078125 167.05 506.5 182.5 521.95 204.3 521.95 226.1 521.95 241.5 506.5 256.95 491.1 256.95 469.3 256.95 447.5 241.5 432.05
M 190.15 372.65
Q 182.5521484375 377.8 186.3 385.05 190.04921875 392.3 195.15 397.4 200.3 402.55 207.55 402.55 214.8 402.55 219.9 397.4 225.05 392.3 225.05 385.05 225.05 377.8 219.9 372.65 214.8005859375 367.55 206.3 367.55 197.79765625 367.55 190.15 372.65
M -3.75 75.05
L -3.75 488.65
Q 13.0794921875 461.5283203125 72.1 448.55 314.46484375 395.383984375 -3.75 75.05 Z"/>
</g>
</defs>

<g transform="matrix( 1, 0, 0, 1, 0,0) ">
<use xlink:href="#Layer0_0_FILL"/>
</g>
</svg>
