
<svg xmlns="http://www.w3.org/2000/svg" version="1.1" xmlns:xlink="http://www.w3.org/1999/xlink" preserveAspectRatio="none" x="0px" y="0px" width="600px" height="600px" viewBox="0 0 600 600">
<defs>
<image id="FL_7Vw7NFRoQRGXJo9zotDg_c89562e03b9efe9fa8c5738f5c596bf32_png" x="0" y="0" width="1184" height="1184" xlink:href="./images/FL_7Vw7NFRoQRGXJo9zotDg_c89562e03b9efe9fa8c5738f5c596bf32_png.png"/>

<pattern id="Pattern_1" patternUnits="userSpaceOnUse" patternTransform="matrix( 1, 0, 0, 1, 291,-45) " width="1184" height="1184">
<use xlink:href="#FL_7Vw7NFRoQRGXJo9zotDg_c89562e03b9efe9fa8c5738f5c596bf32_png"/>
</pattern>

<g id="Layer0_0_FILL">
<path fill="#252525" stroke="none" d="
M 142.7 205.8
Q 140.2 206.3 139.25 207.95 90.5 235.8 73.35 292.95 68.95 307.55 66 323.85
L 66 449.6
Q 77.85 495.75 113 516.9 115.2 518.2 116.5 520.4 120.45 522.15 123.7 524.75 126.3 526.8 130.55 527.4 143.25 534.85 161.15 535.15 300.75 537.45 440.3 537.9 455.25 534.45 468.2 528.8 468.35 528.7 468.35 528.25 470.1 527.85 471.8 527.3 472.7 526.95 473.35 526.3 473.55 526.05 473.55 525.65 523.9 499.8 532.45 435.85 540.1 378.5 537.45 318.25 524.15 369.2 488.95 398.5 481.65 404.6 471.85 408.4 471.85 408.85 471.65 408.9 471 409.25 470.1 409.45 469.2 409.65 468.35 410.1 451.3 418.9 427.2 419.1 304.2 420.15 181.3 419.75 181.3 347.1 181.3 274.45 181.3 273.35 181.4 272.25
L 181.4 196.9
Q 160.75 198.45 155.85 200.05 154 201.7 151.4 202.4 149.1 202.95 147.15 203.6 145.25 205.2 142.7 205.8
M 456.5 58.5
Q 455.75 57.9 454.85 57.45 444 55.2 432.95 54.6 287.55 46.4 155.75 56.25 145.55 57.05 135.4 60.05 134.55 60.9 133.55 61.15 130.45 61.6 128.9 63.1 128.45 63.55 127.55 63.55 126.7 64.45 125.7 64.65 123.45 65.15 122.65 66.8 122.35 67.5 121.45 67.95 94.45 83.4 79.05 110.25 73.25 120.35 68.05 130.95 68.05 131.4 68.05 131.85 68.05 132.3 68.05 132.7 68.05 133.15 68.05 133.6 68.05 134 68.05 134.4 63.75 151.15 61.6 170.1
L 61.6 267.85
Q 61.75 269.9 61.9 271.8 73.45 230.85 101.55 202.1 110.7 192.8 121.45 185.2 123.15 184.8 124.65 183.85 125.3 183.45 126 182.8 126.7 182.15 127.55 181.7 128.45 181.7 129.15 181.4 129.3 181.25 129.4 181.2 131.7 180.55 133.65 179.95 147.35 173.45 165.15 173.25 291.25 171.65 417.25 172.1 417.25 218.0419921875 416.55 264 416.555078125 268.1328125 416.5 272.25 416.48203125 273.5248046875 416.45 274.8 416.46796875 279.88046875 416.45 284.95 416.4359375 288.9375 416.4 292.9
L 416.45 398.65
Q 441.5626953125 394.821875 447.6 390.25 453.6861328125 385.6861328125 456.65 384.75 457.5 384.75 458.25 384.4 458.4 384.3 458.55 384.2 460.15 383.45 461.7 382.65 461.85 382.55 461.85 382.1 464.45 382 465.8 380.95 468.3 378.95 471.55 377.7 511.4 347.1 526.2 294.35 538.6 249.7 538.15 192.2 537.35 101.35 480.15 69.8 477.3 68.2 474.1 67.05 472.35 65.75 470.55 64.55 467.65 62.6 463.6 61.8 462.75 60.9 461.75 60.7 458.4 60.05 456.5 58.5 Z"/>

<path fill="url(#Pattern_1)" stroke="none" d="
M 1475 1139
L 1475 1138.5
Q 883 1138.5 291 1138
L 291 1139 1475 1139 Z"/>
</g>
</defs>

<g transform="matrix( 1, 0, 0, 1, 0,0) ">
<use xlink:href="#Layer0_0_FILL"/>
</g>
</svg>
