
<svg xmlns="http://www.w3.org/2000/svg" version="1.1" xmlns:xlink="http://www.w3.org/1999/xlink" preserveAspectRatio="none" x="0px" y="0px" width="885px" height="472px" viewBox="0 0 885 472">
<defs>
<g id="Layer1_0_FILL">
<path fill="#FDC500" stroke="none" d="
M 0.05 -29.6
L 0.05 -21.4 30.55 6.1 0.05 6.1 0.05 29.65 48.8 28.35 64.95 39.25 239 187.2 239 187.45 391.65 192.25 487.15 270.95 507.15 270.95 327 117.8 308.7 117.8 379.65 178.1 245.1 174.85 65.8 25.8 84.8 26.15 15.65 -29.6 0.05 -29.6
M 691.9 449.15
L 717.15 455.25 558.7 320.4 540.4 320.4 691.9 449.15
M 866.85 449.15
L 888.4 449.15 888.4 425.35 859.4 394.85 762.95 398.3 866.85 449.15
M 887.55 326.95
L 887.55 310.6 821.8 261 801 259.85 887.55 326.95
M 774.05 237.7
L 795.05 237.7 632.6 114.05 614.6 113.6 764.1 229.6 617.25 225.05 626.7 225.05 598.25 224.45 775.8 372.4 794.1 372.4 628.75 234.6 774.05 237.7
M 413.35 -27.9
L 389.4 -29.6 561.3 101.15 700.55 109.85 887.55 235.8 889.25 235.95 889.25 224.75 703.55 98.75 570.6 89.25 413.35 -27.9
M 373.95 358.5
L 399.25 358.5 245.9 230.35 226.65 230.35 367.45 349.55 220.6 345 230.05 345 201.6 344.4 324.25 446.6 342.55 446.6 232.1 354.55 373.95 358.5
M -0.85 247.35
L -0.85 257.75 45.6 257.75 234.05 447.5 250.35 447.5 53.6 247.35 -0.85 247.35
M -0.85 128
L -0.85 134.9 192.55 318.3 216 320.9 0.9 119.25 0.9 128 -0.85 128
M 155 -29.55
L 135.75 -29.55 294.45 96.95 313.15 96.95 155 -29.55 Z"/>
</g>

<g id="Layer1_1_FILL">
<path fill="#FDC500" stroke="none" d="
M 516.85 457.7
L 516.85 457.65
Q 516.35 457.65 515.8 457.65
L 515.8 457.7 516.85 457.7
M 489.3 384.15
L 489.25 384.2 489.2 384.2
Q 489.15 384.2 489.1 384.25 489.05 384.3 489 384.3
L 488.9 384.35
Q 488.85 384.35 488.75 384.35
L 488.75 384.4
Q 488.75 384.45 488.7 384.45 488.65 384.45 488.6 384.5
L 488.55 384.55
Q 488.45 384.55 488.35 384.6 486.2 385.9 485.1 388.25 483.45 391.95 483.8 397.35 484.15 402.55 482.95 406.5 482.75 406.9 482.6 407.3 482.2 408.2 481.7 408.95
L 481.7 409
Q 481.8 409.1 481.9 409.2 482.1 409.35 482.35 409.5 482.5 409.55 482.65 409.7
L 482.75 409.7
Q 482.9 409.7 483 409.8 483.05 409.8 483.1 409.85 483.15 409.85 483.2 409.9 483.3 409.95 483.45 409.95 483.65 410.05 483.75 410.15 486.15 410.85 489 411.1 489.05 411.65 489.1 412.25 489.25 413.85 488.65 414.6 488.6 414.6 488.55 414.65 488.45 414.7 488.3 414.7 488.3 414.75 488.2 414.75 486.4 415.5 484.4 416 484.05 416.1 483.75 416.15 483.55 416.2 483.45 416.35 483.3 416.35 483.2 416.4 483.1 416.5 483 416.6 482.85 416.75 482.75 416.9 482.7 416.95 482.65 416.95 482.65 417 482.65 417.05
L 482.65 417.2
Q 482.65 417.25 482.65 417.3
L 482.65 417.35
Q 482.65 417.45 482.65 417.5
L 482.7 417.55 482.7 417.6
Q 482.75 417.65 482.75 417.7 485.4 417.9 487.6 418.6
L 487.6 418.65 487.65 418.65
Q 487.75 418.7 487.8 418.75 487.85 418.75 487.9 418.75 487.95 418.8 488 418.85 488.05 418.85 488.1 418.85 488.2 418.9 488.3 418.95
L 488.35 419 488.4 419
Q 488.45 419 488.45 419.05 488.5 419.05 488.55 419.1
L 488.6 419.15
Q 488.7 419.2 488.75 419.2 491.15 420.6 493.1 422.5 494.35 423.65 495.15 425.4
L 495.2 425.4
Q 504 425.4 512.8 425.4 512.6 422.25 511.35 420.3 510.1 418.5 508.25 417.45 505.95 416.7 503.65 416 502.05 415.55 500.5 415.1
L 500.45 415.05 500.3 415.05 500.25 415 500.25 414.95
Q 500.2 414.95 500.15 414.95 500.15 414.9 500.1 414.85 500.05 414.8 500 414.8 499.95 414.8 499.9 414.8 499.9 414.75 499.85 414.75 499.8 414.7 499.7 414.6 499.6 414.5 499.55 414.35 499.45 414.25 499.4 414.2 499.3 413.8 499.3 413.3 499.25 412.3 499.3 411.25 499.3 411.1 499.3 410.9 502.2 410.75 504.65 410.1 504.65 410.05 504.7 410.05 504.9 410 505 409.95 505.15 409.95 505.25 409.85
L 505.3 409.8 505.35 409.8
Q 505.45 409.7 505.55 409.7 505.6 409.7 505.65 409.65
L 505.65 409.6
Q 505.85 409.6 505.95 409.5 506.15 409.35 506.35 409.25 506.5 409.15 506.65 409 505.25 407.15 504.9 404.35 504.3 399.6 504.4 394.3 504.45 389.2 502 386.35 501.3 385.5 500.35 384.85 500.25 384.8 500.25 384.75 500.15 384.65 500.1 384.65 500 384.55 499.8 384.55
L 499.7 384.5 499.7 384.45 499.65 384.45
Q 499.55 384.45 499.55 384.4 499.5 384.35 499.45 384.3 499.4 384.3 499.35 384.3 499.3 384.3 499.25 384.25 499.2 384.2 499.15 384.2 499.05 384.15 498.9 384.1 498.7 384.05 498.5 384 498.4 383.95 498.3 383.85 496.15 383.2 493.2 383.25 490.95 383.45 489.3 384.15
M 456.2 374.2
L 456.2 374.25
Q 456.15 374.25 456.1 374.25 456.05 374.25 456.05 374.3 456 374.35 455.95 374.35 455.9 374.35 455.85 374.4 455.85 374.45 455.8 374.45
L 455.7 374.45 455.7 374.5
Q 455.7 374.55 455.6 374.55 453.85 375.55 452.55 377 450.15 379.65 449.7 384.05 449.1 389.3 450.5 393.35 450.5 393.45 450.6 393.5 450.6 393.55 450.6 393.6 450.25 393.6 450.05 393.7
L 450 393.7
Q 449.9 393.75 449.9 393.8
L 449.8 393.85
Q 449.7 393.95 449.65 394.05 449.55 394.25 449.5 394.4
L 449.45 394.45
Q 449.1 396.8 449.75 398.65 450.4 400.55 451.15 402.25 451.5 403.05 452.55 403 452.75 405.2 453.15 407.3 453.75 410.4 455.75 412.05 455.75 413.3 455.75 414.45 455.75 415.25 455.65 416 455.5 417.4 455 418.45 454.95 418.45 454.9 418.55 454.9 418.6 454.8 418.65 454.65 418.75 454.5 418.8 454.35 418.9 454.2 418.9
L 454.2 418.95
Q 454.15 419 454.1 419 454.05 419 454 419.05 453.95 419.05 453.9 419.1
L 453.85 419.1
Q 453.8 419.1 453.8 419.15 453.75 419.2 453.65 419.2
L 453.6 419.2
Q 448.75 420.85 443.2 421.7 442.75 421.8 442.45 421.95 442.4 421.95 442.4 422 442.25 422.05 442.15 422.05 442.1 422.1 442.05 422.1 442 422.15 441.95 422.2 441.9 422.2 441.85 422.2
L 441.85 422.25 441.75 422.25
Q 441.7 422.3 441.7 422.35 441.6 422.35 441.55 422.35
L 441.5 422.4 441.45 422.4
Q 441.45 422.45 441.4 422.45
L 441.35 422.45
Q 441.35 422.5 441.3 422.5 441.25 422.55 441.2 422.55
L 441.1 422.6
Q 441 422.7 440.9 422.75 440.85 422.85 440.75 422.85 438.95 423.85 437.55 425.25 434.95 427.75 433.75 431.6 433.1 433.65 433.1 436.35
L 433.1 436.4
Q 463.55 436.4 494 436.4 494 433.95 493.5 432.05 492.35 428.05 489.9 425.5 488.1 423.65 485.65 422.45
L 485.65 422.4
Q 485.65 422.35 485.6 422.35
L 485.55 422.35 485.5 422.3 485.45 422.3
Q 485.4 422.3 485.4 422.25 485.35 422.25 485.3 422.25
L 485.3 422.2
Q 485.25 422.2 485.2 422.15 485.15 422.15 485.1 422.15 485.05 422.1 485 422.1
L 485 422.05 484.95 422.05 484.85 422
Q 484.75 421.95 484.7 421.9 484.65 421.9 484.6 421.9 484.55 421.9 484.5 421.85 484.3 421.8 484.15 421.7 483.85 421.65 483.6 421.5 478 420.85 473.45 419.2
L 473.4 419.2 473.35 419.15
Q 473.25 419.1 473.2 419.05 473.15 419.05 473.1 419 473.05 419 473 419 472.9 418.95 472.85 418.9 472.75 418.85 472.7 418.8 472.6 418.75 472.45 418.65 472.4 418.6 472.25 418.6 471.6 417.9 471.5 416.65 471.5 416.35 471.5 416 471.4 414.1 471.35 412.1 472.55 410.9 473.25 409.2 474.3 406.5 474.55 403.05 474.6 402.9 474.7 402.95 475.05 403.1 475.3 403 475.35 403 475.45 402.9 475.55 402.85 475.65 402.75 475.85 402.6 476 402.4 476.2 402.05 476.35 401.65
L 476.35 401.6
Q 476.7 400.15 477.2 398.8 477.95 396.85 477.65 394.45 477.55 394.45 477.5 394.4 477.5 394.35 477.5 394.25 477.45 394.15 477.4 394.05 477.3 393.85 477.2 393.75 477.2 393.7 477.1 393.7
L 477.05 393.7
Q 476.85 393.6 476.5 393.6 477.3 391.9 477.6 389.65 478.25 384.55 476.7 380.7 475.2 376.8 471.85 374.7 471.6 374.6 471.5 374.45
L 471.4 374.45
Q 471.25 374.4 471.25 374.35 471.2 374.35 471.15 374.3 471.1 374.25 470.95 374.25
L 470.95 374.2
Q 470.9 374.2 470.85 374.15 470.8 374.15 470.8 374.1
L 470.7 374.1 470.7 374.05
Q 470.65 374.05 470.55 374
L 470.45 374
Q 470.45 373.95 470.4 373.95
L 470.4 373.9
Q 470.35 373.9 470.3 373.9 470.25 373.85 470.2 373.85 470.1 373.75 470.05 373.75
L 470 373.75
Q 467.1 372.45 462.9 372.5 459.8 372.65 457.5 373.6 457.45 373.65 457.4 373.65 457.35 373.65 457.35 373.7
L 457.3 373.7
Q 457.25 373.7 457.2 373.75
L 457.1 373.75 457.1 373.8
Q 457.05 373.8 457 373.85 456.9 373.9 456.85 373.9 456.8 373.9 456.75 373.95 456.7 374 456.65 374
L 456.55 374
Q 456.55 374.05 456.5 374.05
L 456.45 374.1 456.4 374.1 456.3 374.15
Q 456.25 374.2 456.2 374.2
M 428 384.3
Q 427.95 384.3 427.9 384.3 427.8 384.35 427.7 384.35 427.65 384.4 427.65 384.45
L 427.55 384.45
Q 427.55 384.5 427.5 384.5 427.45 384.5 427.4 384.55
L 427.3 384.55
Q 427.3 384.6 427.25 384.65
L 427.2 384.65
Q 427.05 384.65 427 384.75 426.95 384.8 426.85 384.85 424.85 386.3 423.85 388.65 422.3 392.5 422.7 397.95 423.1 403.45 421.55 407.2 421.15 408.15 420.6 409 420.7 409.05 420.8 409.15 421 409.25 421.2 409.4 421.4 409.55 421.6 409.6
L 421.6 409.65
Q 421.6 409.7 421.65 409.7 421.75 409.7 421.85 409.75 421.85 409.8 421.9 409.85 422 409.85 422.1 409.9 422.2 409.95 422.4 410 422.5 410 422.6 410.1 425 410.75 427.95 410.85 427.95 411.35 427.95 411.9 428 412.95 427.8 414 427.8 414.05 427.85 414.2 427.75 414.25 427.75 414.35 427.7 414.45 427.65 414.5 427.55 414.6 427.4 414.7 427.35 414.7 427.3 414.8 427.25 414.8 427.15 414.85 427.1 414.9 427.1 414.95 427.05 415 426.9 415.05
L 426.8 415.05
Q 426.75 415.1 426.7 415.1
L 426.7 415.15 426.6 415.15
Q 425.1 415.55 423.6 416 421.25 416.7 419 417.45 416.75 418.75 415.5 421.05 414.55 422.8 414.45 425.3
L 414.45 425.4
Q 423.25 425.4 432.05 425.4 433.2 423.1 435.05 421.55 436.6 420.25 438.45 419.25 438.5 419.2 438.55 419.2 438.65 419.15 438.65 419.1 438.8 419.05 438.9 419
L 438.95 419
Q 438.95 418.95 439 418.95 439 418.9 439.05 418.9 439.1 418.9 439.15 418.9 439.2 418.85 439.25 418.85
L 439.25 418.8
Q 439.3 418.75 439.35 418.75
L 439.45 418.7
Q 439.5 418.65 439.6 418.65
L 439.65 418.65
Q 441.8 417.85 444.5 417.7
L 444.5 417.65
Q 444.6 417.6 444.6 417.5
L 444.6 417.45
Q 444.6 417.4 444.6 417.35
L 444.6 416.95
Q 444.5 416.9 444.45 416.8 444.4 416.7 444.3 416.6 444.15 416.45 443.9 416.35
L 443.8 416.35
Q 443.3 416.2 442.75 416 441 415.45 439.25 414.85 439.15 414.8 439 414.8 438.95 414.75 438.9 414.75 438.85 414.7 438.8 414.7 438.75 414.65 438.65 414.6 438.2 414.4 438.15 413.7 438.1 412.3 438.25 411.1 441.05 410.8 443.5 410.15 443.55 410.1 443.6 410.05 443.75 410.05 443.85 410 444 409.95 444.15 409.85 444.2 409.85 444.25 409.8 444.3 409.75 444.35 409.7 444.4 409.7 444.45 409.7 444.5 409.7 444.6 409.7 444.7 409.6 444.8 409.5 445.05 409.35 445.3 409.25 445.4 409.15 445.55 409 445.35 408.6 445.15 408.2 444.7 407.4 444.3 406.5 443.45 403.95 443.55 400.7 443.7 395.4 442.9 390.8 442.15 386.5 438.9 384.65 438.8 384.6 438.8 384.55 438.75 384.55 438.65 384.5 438.65 384.45 438.55 384.45 438.5 384.45 438.45 384.35 438.4 384.35 438.35 384.35
L 438.35 384.3
Q 438.25 384.3 438.1 384.25
L 438.05 384.2
Q 435.65 383.1 431.95 383.25 430.35 383.4 429.1 383.85 429.05 383.85 428.9 383.85 428.8 383.95 428.7 383.95 428.35 384.05 428.15 384.15 428.05 384.2 428 384.3 Z"/>

<path fill="#FFFFFF" stroke="none" d="
M 564.9 419.55
Q 564.85 414.6 562.6 411.05 560.25 407.5 556 405.6 551.75 403.7 545.9 403.65
L 526.95 403.65 526.95 447.45 537.1 447.45 537.1 435.25 546.4 435.25 554.85 447.45 565.75 447.45 555.9 433.4
Q 560.2 431.55 562.5 428.05 564.85 424.5 564.9 419.55
M 552.3 413.9
Q 554.65 415.9 554.65 419.55 554.65 423.15 552.3 425.15 549.95 427.15 545.35 427.2
L 537.1 427.2 537.1 411.9 545.35 411.9
Q 549.95 411.95 552.3 413.9
M 596.65 415.4
Q 592.7 413.3 587.7 413.3 582.55 413.3 578.5 415.55 574.45 417.75 572.15 421.65 569.85 425.55 569.75 430.6 569.8 435.7 572.15 439.55 574.55 443.5 578.8 445.7 583.1 447.95 589 447.95 593.55 447.95 597 446.6 600.5 445.2 602.85 442.55
L 597.65 436.9
Q 595.95 438.55 593.9 439.35 591.9 440.15 589.2 440.15 585.35 440.1 582.85 438.35 580.35 436.55 579.6 433.35
L 605.05 433.35
Q 605.1 432.75 605.15 432.05 605.2 431.3 605.2 430.75 605.15 425.3 602.85 421.4 600.6 417.5 596.65 415.4
M 579.45 427.7
Q 580.05 424.4 582.2 422.55 584.4 420.7 587.8 420.65 591.1 420.7 593.3 422.6 595.5 424.45 596.05 427.7
L 579.45 427.7
M 635.75 413.8
L 626.25 436.65 616.8 413.8 606.75 413.8 621.3 447.7 621.2 448.05
Q 620.25 450.25 618.95 451.25 617.65 452.25 615.7 452.2 614.2 452.2 612.8 451.65 611.3 451.1 610.2 450.1
L 606.6 457.05
Q 608.3 458.5 610.8 459.3 613.35 460.1 616 460.1 619.05 460.1 621.55 459.15 624.15 458.2 626.25 455.9 628.3 453.55 629.95 449.55
L 645.15 413.8 635.75 413.8
M 662.75 413.3
Q 658.65 413.3 654.85 414.3 651.05 415.35 648.2 417.35
L 651.7 424.2
Q 653.6 422.7 656.15 421.85 658.7 421.05 661.4 421.05 665.35 421.05 667.3 422.75 669.15 424.5 669.15 427.7
L 661.4 427.7
Q 653.8 427.75 650.35 430.5 646.9 433.2 646.95 437.75 647 440.7 648.45 443 649.95 445.3 652.75 446.65 655.6 447.95 659.5 447.95 663.25 447.95 665.85 446.8 668.45 445.6 669.8 443.25
L 669.8 447.45 678.9 447.45 678.9 428.25
Q 678.85 420.6 674.65 416.95 670.45 413.25 662.75 413.3
M 656.45 437.3
Q 656.4 435.6 657.75 434.5 659.1 433.4 662.5 433.35
L 669.15 433.35 669.15 436.8
Q 668.3 439.1 666.35 440.25 664.45 441.4 661.95 441.4 659.35 441.35 657.95 440.25 656.5 439.15 656.45 437.3
M 720.25 419.75
Q 718.45 416.45 715.35 414.85 712.2 413.3 708.2 413.3 704.75 413.3 701.85 414.4 699 415.55 697.05 417.7
L 697.05 413.8 687.7 413.8 687.7 447.45 697.45 447.45 697.45 430.8
Q 697.5 426.15 699.75 423.95 701.95 421.65 705.55 421.7 708.8 421.65 710.55 423.65 712.35 425.6 712.35 429.65
L 712.35 447.45 722.1 447.45 722.1 428.15
Q 722.1 423.05 720.25 419.75
M 765.6 413.8
L 756.35 413.8 756.35 418.1
Q 754.45 415.65 751.6 414.45 748.75 413.3 745.2 413.3 740.5 413.3 736.7 415.3 732.95 417.3 730.7 420.95 728.45 424.6 728.4 429.55 728.45 434.5 730.7 438.15 732.95 441.8 736.7 443.8 740.5 445.8 745.2 445.85 748.5 445.85 751.25 444.8 753.9 443.75 755.85 441.65
L 755.85 443.1
Q 755.9 447.65 753.5 449.95 751.1 452.3 746 452.3 742.7 452.25 739.5 451.25 736.35 450.25 734.1 448.45
L 730.2 455.45
Q 733.2 457.75 737.55 458.95 741.9 460.1 746.7 460.1 755.85 460.1 760.75 455.65 765.6 451.2 765.6 441.85
L 765.6 413.8
M 740.8 423.55
Q 743.25 421.35 747.15 421.3 751.1 421.35 753.5 423.55 755.9 425.8 756 429.55 755.9 433.35 753.5 435.55 751.1 437.75 747.15 437.85 743.25 437.75 740.8 435.55 738.35 433.35 738.3 429.6 738.35 425.8 740.8 423.55
M 788.3 413.3
Q 784.2 413.3 780.4 414.3 776.6 415.35 773.75 417.35
L 777.25 424.2
Q 779.15 422.7 781.7 421.85 784.25 421.05 786.95 421.05 790.9 421.05 792.85 422.75 794.7 424.5 794.7 427.7
L 786.95 427.7
Q 779.35 427.75 775.9 430.5 772.45 433.2 772.5 437.75 772.55 440.7 774 443 775.5 445.3 778.3 446.65 781.15 447.95 785.05 447.95 788.8 447.95 791.4 446.8 794 445.6 795.35 443.25
L 795.35 447.45 804.45 447.45 804.45 428.25
Q 804.4 420.6 800.2 416.95 796 413.25 788.3 413.3
M 783.3 434.5
Q 784.65 433.4 788.05 433.35
L 794.7 433.35 794.7 436.8
Q 793.85 439.1 791.9 440.25 790 441.4 787.5 441.4 784.9 441.35 783.5 440.25 782.05 439.15 782 437.3 781.95 435.6 783.3 434.5
M 840.95 414.85
Q 837.8 413.3 833.8 413.3 830.35 413.3 827.45 414.4 824.6 415.55 822.65 417.7
L 822.65 413.8 813.3 413.8 813.3 447.45 823.05 447.45 823.05 430.8
Q 823.1 426.15 825.35 423.95 827.55 421.65 831.15 421.7 834.4 421.65 836.15 423.65 837.95 425.6 837.95 429.65
L 837.95 447.45 847.7 447.45 847.7 428.15
Q 847.7 423.05 845.85 419.75 844.05 416.45 840.95 414.85 Z"/>
</g>

<g id="Layer1_2_FILL">
<path fill="#FDC500" stroke="none" d="
M 515.8 457.7
L 516.85 457.7 516.85 457.65
Q 516.35 457.65 515.8 457.65
L 515.8 457.7
M 489.3 384.15
L 489.25 384.2 489.2 384.2
Q 489.15 384.2 489.1 384.25 489.05 384.3 489 384.3
L 488.9 384.35
Q 488.85 384.35 488.75 384.35
L 488.75 384.4
Q 488.75 384.45 488.7 384.45 488.65 384.45 488.6 384.5
L 488.55 384.55
Q 488.45 384.55 488.35 384.6 486.2 385.9 485.1 388.25 483.45 391.95 483.8 397.35 484.15 402.55 482.95 406.5 482.75 406.9 482.6 407.3 482.2 408.2 481.7 408.95
L 481.7 409
Q 481.8 409.1 481.9 409.2 482.1 409.35 482.35 409.5 482.5 409.55 482.65 409.7
L 482.75 409.7
Q 482.9 409.7 483 409.8 483.05 409.8 483.1 409.85 483.15 409.85 483.2 409.9 483.3 409.95 483.45 409.95 483.65 410.05 483.75 410.15 486.15 410.85 489 411.1 489.05 411.65 489.1 412.25 489.25 413.85 488.65 414.6 488.6 414.6 488.55 414.65 488.45 414.7 488.3 414.7 488.3 414.75 488.2 414.75 486.4 415.5 484.4 416 484.05 416.1 483.75 416.15 483.55 416.2 483.45 416.35 483.3 416.35 483.2 416.4 483.1 416.5 483 416.6 482.85 416.75 482.75 416.9 482.7 416.95 482.65 416.95 482.65 417 482.65 417.05
L 482.65 417.2
Q 482.65 417.25 482.65 417.3
L 482.65 417.35
Q 482.65 417.45 482.65 417.5
L 482.7 417.55 482.7 417.6
Q 482.75 417.65 482.75 417.7 485.4 417.9 487.6 418.6
L 487.6 418.65 487.65 418.65
Q 487.75 418.7 487.8 418.75 487.85 418.75 487.9 418.75 487.95 418.8 488 418.85 488.05 418.85 488.1 418.85 488.2 418.9 488.3 418.95
L 488.35 419 488.4 419
Q 488.45 419 488.45 419.05 488.5 419.05 488.55 419.1
L 488.6 419.15
Q 488.7 419.2 488.75 419.2 491.15 420.6 493.1 422.5 494.35 423.65 495.15 425.4
L 495.2 425.4
Q 504 425.4 512.8 425.4 512.6 422.25 511.35 420.3 510.1 418.5 508.25 417.45 505.95 416.7 503.65 416 502.05 415.55 500.5 415.1
L 500.45 415.05 500.3 415.05 500.25 415 500.25 414.95
Q 500.2 414.95 500.15 414.95 500.15 414.9 500.1 414.85 500.05 414.8 500 414.8 499.95 414.8 499.9 414.8 499.9 414.75 499.85 414.75 499.8 414.7 499.7 414.6 499.6 414.5 499.55 414.35 499.45 414.25 499.4 414.2 499.3 413.8 499.3 413.3 499.25 412.3 499.3 411.25 499.3 411.1 499.3 410.9 502.2 410.75 504.65 410.1 504.65 410.05 504.7 410.05 504.9 410 505 409.95 505.15 409.95 505.25 409.85
L 505.3 409.8 505.35 409.8
Q 505.45 409.7 505.55 409.7 505.6 409.7 505.65 409.65
L 505.65 409.6
Q 505.85 409.6 505.95 409.5 506.15 409.35 506.35 409.25 506.5 409.15 506.65 409 505.25 407.15 504.9 404.35 504.3 399.6 504.4 394.3 504.45 389.2 502 386.35 501.3 385.5 500.35 384.85 500.25 384.8 500.25 384.75 500.15 384.65 500.1 384.65 500 384.55 499.8 384.55
L 499.7 384.5 499.7 384.45 499.65 384.45
Q 499.55 384.45 499.55 384.4 499.5 384.35 499.45 384.3 499.4 384.3 499.35 384.3 499.3 384.3 499.25 384.25 499.2 384.2 499.15 384.2 499.05 384.15 498.9 384.1 498.7 384.05 498.5 384 498.4 383.95 498.3 383.85 496.15 383.2 493.2 383.25 490.95 383.45 489.3 384.15
M 456.2 374.2
L 456.2 374.25
Q 456.15 374.25 456.1 374.25 456.05 374.25 456.05 374.3 456 374.35 455.95 374.35 455.9 374.35 455.85 374.4 455.85 374.45 455.8 374.45
L 455.7 374.45 455.7 374.5
Q 455.7 374.55 455.6 374.55 453.85 375.55 452.55 377 450.15 379.65 449.7 384.05 449.1 389.3 450.5 393.35 450.5 393.45 450.6 393.5 450.6 393.55 450.6 393.6 450.25 393.6 450.05 393.7
L 450 393.7
Q 449.9 393.75 449.9 393.8
L 449.8 393.85
Q 449.7 393.95 449.65 394.05 449.55 394.25 449.5 394.4
L 449.45 394.45
Q 449.1 396.8 449.75 398.65 450.4 400.55 451.15 402.25 451.5 403.05 452.55 403 452.75 405.2 453.15 407.3 453.75 410.4 455.75 412.05 455.75 413.3 455.75 414.45 455.75 415.25 455.65 416 455.5 417.4 455 418.45 454.95 418.45 454.9 418.55 454.9 418.6 454.8 418.65 454.65 418.75 454.5 418.8 454.35 418.9 454.2 418.9
L 454.2 418.95
Q 454.15 419 454.1 419 454.05 419 454 419.05 453.95 419.05 453.9 419.1
L 453.85 419.1
Q 453.8 419.1 453.8 419.15 453.75 419.2 453.65 419.2
L 453.6 419.2
Q 448.75 420.85 443.2 421.7 442.75 421.8 442.45 421.95 442.4 421.95 442.4 422 442.25 422.05 442.15 422.05 442.1 422.1 442.05 422.1 442 422.15 441.95 422.2 441.9 422.2 441.85 422.2
L 441.85 422.25 441.75 422.25
Q 441.7 422.3 441.7 422.35 441.6 422.35 441.55 422.35
L 441.5 422.4 441.45 422.4
Q 441.45 422.45 441.4 422.45
L 441.35 422.45
Q 441.35 422.5 441.3 422.5 441.25 422.55 441.2 422.55
L 441.1 422.6
Q 441 422.7 440.9 422.75 440.85 422.85 440.75 422.85 438.95 423.85 437.55 425.25 434.95 427.75 433.75 431.6 433.1 433.65 433.1 436.35
L 433.1 436.4
Q 463.55 436.4 494 436.4 494 433.95 493.5 432.05 492.35 428.05 489.9 425.5 488.1 423.65 485.65 422.45
L 485.65 422.4
Q 485.65 422.35 485.6 422.35
L 485.55 422.35 485.5 422.3 485.45 422.3
Q 485.4 422.3 485.4 422.25 485.35 422.25 485.3 422.25
L 485.3 422.2
Q 485.25 422.2 485.2 422.15 485.15 422.15 485.1 422.15 485.05 422.1 485 422.1
L 485 422.05 484.95 422.05 484.85 422
Q 484.75 421.95 484.7 421.9 484.65 421.9 484.6 421.9 484.55 421.9 484.5 421.85 484.3 421.8 484.15 421.7 483.85 421.65 483.6 421.5 478 420.85 473.45 419.2
L 473.4 419.2 473.35 419.15
Q 473.25 419.1 473.2 419.05 473.15 419.05 473.1 419 473.05 419 473 419 472.9 418.95 472.85 418.9 472.75 418.85 472.7 418.8 472.6 418.75 472.45 418.65 472.4 418.6 472.25 418.6 471.6 417.9 471.5 416.65 471.5 416.35 471.5 416 471.4 414.1 471.35 412.1 472.55 410.9 473.25 409.2 474.3 406.5 474.55 403.05 474.6 402.9 474.7 402.95 475.05 403.1 475.3 403 475.35 403 475.45 402.9 475.55 402.85 475.65 402.75 475.85 402.6 476 402.4 476.2 402.05 476.35 401.65
L 476.35 401.6
Q 476.7 400.15 477.2 398.8 477.95 396.85 477.65 394.45 477.55 394.45 477.5 394.4 477.5 394.35 477.5 394.25 477.45 394.15 477.4 394.05 477.3 393.85 477.2 393.75 477.2 393.7 477.1 393.7
L 477.05 393.7
Q 476.85 393.6 476.5 393.6 477.3 391.9 477.6 389.65 478.25 384.55 476.7 380.7 475.2 376.8 471.85 374.7 471.6 374.6 471.5 374.45
L 471.4 374.45
Q 471.25 374.4 471.25 374.35 471.2 374.35 471.15 374.3 471.1 374.25 470.95 374.25
L 470.95 374.2
Q 470.9 374.2 470.85 374.15 470.8 374.15 470.8 374.1
L 470.7 374.1 470.7 374.05
Q 470.65 374.05 470.55 374
L 470.45 374
Q 470.45 373.95 470.4 373.95
L 470.4 373.9
Q 470.35 373.9 470.3 373.9 470.25 373.85 470.2 373.85 470.1 373.75 470.05 373.75
L 470 373.75
Q 467.1 372.45 462.9 372.5 459.8 372.65 457.5 373.6 457.45 373.65 457.4 373.65 457.35 373.65 457.35 373.7
L 457.3 373.7
Q 457.25 373.7 457.2 373.75
L 457.1 373.75 457.1 373.8
Q 457.05 373.8 457 373.85 456.9 373.9 456.85 373.9 456.8 373.9 456.75 373.95 456.7 374 456.65 374
L 456.55 374
Q 456.55 374.05 456.5 374.05
L 456.45 374.1 456.4 374.1 456.3 374.15
Q 456.25 374.2 456.2 374.2
M 429.1 383.85
Q 429.05 383.85 428.9 383.85 428.8 383.95 428.7 383.95 428.35 384.05 428.15 384.15 428.05 384.2 428 384.3 427.95 384.3 427.9 384.3 427.8 384.35 427.7 384.35 427.65 384.4 427.65 384.45
L 427.55 384.45
Q 427.55 384.5 427.5 384.5 427.45 384.5 427.4 384.55
L 427.3 384.55
Q 427.3 384.6 427.25 384.65
L 427.2 384.65
Q 427.05 384.65 427 384.75 426.95 384.8 426.85 384.85 424.85 386.3 423.85 388.65 422.3 392.5 422.7 397.95 423.1 403.45 421.55 407.2 421.15 408.15 420.6 409 420.7 409.05 420.8 409.15 421 409.25 421.2 409.4 421.4 409.55 421.6 409.6
L 421.6 409.65
Q 421.6 409.7 421.65 409.7 421.75 409.7 421.85 409.75 421.85 409.8 421.9 409.85 422 409.85 422.1 409.9 422.2 409.95 422.4 410 422.5 410 422.6 410.1 425 410.75 427.95 410.85 427.95 411.35 427.95 411.9 428 412.95 427.8 414 427.8 414.05 427.85 414.2 427.75 414.25 427.75 414.35 427.7 414.45 427.65 414.5 427.55 414.6 427.4 414.7 427.35 414.7 427.3 414.8 427.25 414.8 427.15 414.85 427.1 414.9 427.1 414.95 427.05 415 426.9 415.05
L 426.8 415.05
Q 426.75 415.1 426.7 415.1
L 426.7 415.15 426.6 415.15
Q 425.1 415.55 423.6 416 421.25 416.7 419 417.45 416.75 418.75 415.5 421.05 414.55 422.8 414.45 425.3
L 414.45 425.4
Q 423.25 425.4 432.05 425.4 433.2 423.1 435.05 421.55 436.6 420.25 438.45 419.25 438.5 419.2 438.55 419.2 438.65 419.15 438.65 419.1 438.8 419.05 438.9 419
L 438.95 419
Q 438.95 418.95 439 418.95 439 418.9 439.05 418.9 439.1 418.9 439.15 418.9 439.2 418.85 439.25 418.85
L 439.25 418.8
Q 439.3 418.75 439.35 418.75
L 439.45 418.7
Q 439.5 418.65 439.6 418.65
L 439.65 418.65
Q 441.8 417.85 444.5 417.7
L 444.5 417.65
Q 444.6 417.6 444.6 417.5
L 444.6 417.45
Q 444.6 417.4 444.6 417.35
L 444.6 416.95
Q 444.5 416.9 444.45 416.8 444.4 416.7 444.3 416.6 444.15 416.45 443.9 416.35
L 443.8 416.35
Q 443.3 416.2 442.75 416 441 415.45 439.25 414.85 439.15 414.8 439 414.8 438.95 414.75 438.9 414.75 438.85 414.7 438.8 414.7 438.75 414.65 438.65 414.6 438.2 414.4 438.15 413.7 438.1 412.3 438.25 411.1 441.05 410.8 443.5 410.15 443.55 410.1 443.6 410.05 443.75 410.05 443.85 410 444 409.95 444.15 409.85 444.2 409.85 444.25 409.8 444.3 409.75 444.35 409.7 444.4 409.7 444.45 409.7 444.5 409.7 444.6 409.7 444.7 409.6 444.8 409.5 445.05 409.35 445.3 409.25 445.4 409.15 445.55 409 445.35 408.6 445.15 408.2 444.7 407.4 444.3 406.5 443.45 403.95 443.55 400.7 443.7 395.4 442.9 390.8 442.15 386.5 438.9 384.65 438.8 384.6 438.8 384.55 438.75 384.55 438.65 384.5 438.65 384.45 438.55 384.45 438.5 384.45 438.45 384.35 438.4 384.35 438.35 384.35
L 438.35 384.3
Q 438.25 384.3 438.1 384.25
L 438.05 384.2
Q 435.65 383.1 431.95 383.25 430.35 383.4 429.1 383.85 Z"/>

<path fill="#FFFFFF" stroke="none" d="
M 562.6 411.05
Q 560.25 407.5 556 405.6 551.75 403.7 545.9 403.65
L 526.95 403.65 526.95 447.45 537.1 447.45 537.1 435.25 546.4 435.25 554.85 447.45 565.75 447.45 555.9 433.4
Q 560.2 431.55 562.5 428.05 564.85 424.5 564.9 419.55 564.85 414.6 562.6 411.05
M 552.3 413.9
Q 554.65 415.9 554.65 419.55 554.65 423.15 552.3 425.15 549.95 427.15 545.35 427.2
L 537.1 427.2 537.1 411.9 545.35 411.9
Q 549.95 411.95 552.3 413.9
M 596.65 415.4
Q 592.7 413.3 587.7 413.3 582.55 413.3 578.5 415.55 574.45 417.75 572.15 421.65 569.85 425.55 569.75 430.6 569.8 435.7 572.15 439.55 574.55 443.5 578.8 445.7 583.1 447.95 589 447.95 593.55 447.95 597 446.6 600.5 445.2 602.85 442.55
L 597.65 436.9
Q 595.95 438.55 593.9 439.35 591.9 440.15 589.2 440.15 585.35 440.1 582.85 438.35 580.35 436.55 579.6 433.35
L 605.05 433.35
Q 605.1 432.75 605.15 432.05 605.2 431.3 605.2 430.75 605.15 425.3 602.85 421.4 600.6 417.5 596.65 415.4
M 579.45 427.7
Q 580.05 424.4 582.2 422.55 584.4 420.7 587.8 420.65 591.1 420.7 593.3 422.6 595.5 424.45 596.05 427.7
L 579.45 427.7
M 635.75 413.8
L 626.25 436.65 616.8 413.8 606.75 413.8 621.3 447.7 621.2 448.05
Q 620.25 450.25 618.95 451.25 617.65 452.25 615.7 452.2 614.2 452.2 612.8 451.65 611.3 451.1 610.2 450.1
L 606.6 457.05
Q 608.3 458.5 610.8 459.3 613.35 460.1 616 460.1 619.05 460.1 621.55 459.15 624.15 458.2 626.25 455.9 628.3 453.55 629.95 449.55
L 645.15 413.8 635.75 413.8
M 662.75 413.3
Q 658.65 413.3 654.85 414.3 651.05 415.35 648.2 417.35
L 651.7 424.2
Q 653.6 422.7 656.15 421.85 658.7 421.05 661.4 421.05 665.35 421.05 667.3 422.75 669.15 424.5 669.15 427.7
L 661.4 427.7
Q 653.8 427.75 650.35 430.5 646.9 433.2 646.95 437.75 647 440.7 648.45 443 649.95 445.3 652.75 446.65 655.6 447.95 659.5 447.95 663.25 447.95 665.85 446.8 668.45 445.6 669.8 443.25
L 669.8 447.45 678.9 447.45 678.9 428.25
Q 678.85 420.6 674.65 416.95 670.45 413.25 662.75 413.3
M 656.45 437.3
Q 656.4 435.6 657.75 434.5 659.1 433.4 662.5 433.35
L 669.15 433.35 669.15 436.8
Q 668.3 439.1 666.35 440.25 664.45 441.4 661.95 441.4 659.35 441.35 657.95 440.25 656.5 439.15 656.45 437.3
M 720.25 419.75
Q 718.45 416.45 715.35 414.85 712.2 413.3 708.2 413.3 704.75 413.3 701.85 414.4 699 415.55 697.05 417.7
L 697.05 413.8 687.7 413.8 687.7 447.45 697.45 447.45 697.45 430.8
Q 697.5 426.15 699.75 423.95 701.95 421.65 705.55 421.7 708.8 421.65 710.55 423.65 712.35 425.6 712.35 429.65
L 712.35 447.45 722.1 447.45 722.1 428.15
Q 722.1 423.05 720.25 419.75
M 765.6 413.8
L 756.35 413.8 756.35 418.1
Q 754.45 415.65 751.6 414.45 748.75 413.3 745.2 413.3 740.5 413.3 736.7 415.3 732.95 417.3 730.7 420.95 728.45 424.6 728.4 429.55 728.45 434.5 730.7 438.15 732.95 441.8 736.7 443.8 740.5 445.8 745.2 445.85 748.5 445.85 751.25 444.8 753.9 443.75 755.85 441.65
L 755.85 443.1
Q 755.9 447.65 753.5 449.95 751.1 452.3 746 452.3 742.7 452.25 739.5 451.25 736.35 450.25 734.1 448.45
L 730.2 455.45
Q 733.2 457.75 737.55 458.95 741.9 460.1 746.7 460.1 755.85 460.1 760.75 455.65 765.6 451.2 765.6 441.85
L 765.6 413.8
M 740.8 423.55
Q 743.25 421.35 747.15 421.3 751.1 421.35 753.5 423.55 755.9 425.8 756 429.55 755.9 433.35 753.5 435.55 751.1 437.75 747.15 437.85 743.25 437.75 740.8 435.55 738.35 433.35 738.3 429.6 738.35 425.8 740.8 423.55
M 788.3 413.3
Q 784.2 413.3 780.4 414.3 776.6 415.35 773.75 417.35
L 777.25 424.2
Q 779.15 422.7 781.7 421.85 784.25 421.05 786.95 421.05 790.9 421.05 792.85 422.75 794.7 424.5 794.7 427.7
L 786.95 427.7
Q 779.35 427.75 775.9 430.5 772.45 433.2 772.5 437.75 772.55 440.7 774 443 775.5 445.3 778.3 446.65 781.15 447.95 785.05 447.95 788.8 447.95 791.4 446.8 794 445.6 795.35 443.25
L 795.35 447.45 804.45 447.45 804.45 428.25
Q 804.4 420.6 800.2 416.95 796 413.25 788.3 413.3
M 783.3 434.5
Q 784.65 433.4 788.05 433.35
L 794.7 433.35 794.7 436.8
Q 793.85 439.1 791.9 440.25 790 441.4 787.5 441.4 784.9 441.35 783.5 440.25 782.05 439.15 782 437.3 781.95 435.6 783.3 434.5
M 840.95 414.85
Q 837.8 413.3 833.8 413.3 830.35 413.3 827.45 414.4 824.6 415.55 822.65 417.7
L 822.65 413.8 813.3 413.8 813.3 447.45 823.05 447.45 823.05 430.8
Q 823.1 426.15 825.35 423.95 827.55 421.65 831.15 421.7 834.4 421.65 836.15 423.65 837.95 425.6 837.95 429.65
L 837.95 447.45 847.7 447.45 847.7 428.15
Q 847.7 423.05 845.85 419.75 844.05 416.45 840.95 414.85 Z"/>
</g>

<path id="Layer1_0_1_STROKES" stroke="#000000" stroke-width="1" stroke-linejoin="round" stroke-linecap="round" fill="none" d="
M 576.55 140.75
L 577.425 141.325"/>
</defs>

<g transform="matrix( 1, 0, 0, 1, 0,0) ">
<use xlink:href="#Layer1_0_FILL"/>

<use xlink:href="#Layer1_0_1_STROKES"/>
</g>

<g transform="matrix( 0.23028564453125, 0, 0, 0.23028564453125, 639.1,-76.15) ">
<use xlink:href="#Layer1_1_FILL"/>
</g>

<g transform="matrix( 0.23028564453125, 0, 0, 0.23028564453125, -63.65,299.05) ">
<use xlink:href="#Layer1_2_FILL"/>
</g>
</svg>
